<?xml version="1.0" standalone="no"?>
<!DOCTYPE svg PUBLIC "-//W3C//DTD SVG 1.1//EN" "http://www.w3.org/Graphics/SVG/1.1/DTD/svg11.dtd" >
<!--
2013-9-30: Created.
-->
<svg>
<metadata>
Created by iconfont
</metadata>
<defs>

<font id="iconfont" horiz-adv-x="1024" >
  <font-face
    font-family="iconfont"
    font-weight="500"
    font-stretch="normal"
    units-per-em="1024"
    ascent="896"
    descent="-128"
  />
    <missing-glyph />
    
    <glyph glyph-name="x" unicode="x" horiz-adv-x="1001"
d="M281 543q-27 -1 -53 -1h-83q-18 0 -36.5 -6t-32.5 -18.5t-23 -32t-9 -45.5v-76h912v41q0 16 -0.5 30t-0.5 18q0 13 -5 29t-17 29.5t-31.5 22.5t-49.5 9h-133v-97h-438v97zM955 310v-52q0 -23 0.5 -52t0.5 -58t-10.5 -47.5t-26 -30t-33 -16t-31.5 -4.5q-14 -1 -29.5 -0.5
t-29.5 0.5h-32l-45 128h-439l-44 -128h-29h-34q-20 0 -45 1q-25 0 -41 9.5t-25.5 23t-13.5 29.5t-4 30v167h911zM163 247q-12 0 -21 -8.5t-9 -21.5t9 -21.5t21 -8.5q13 0 22 8.5t9 21.5t-9 21.5t-22 8.5zM316 123q-8 -26 -14 -48q-5 -19 -10.5 -37t-7.5 -25t-3 -15t1 -14.5
t9.5 -10.5t21.5 -4h37h67h81h80h64h36q23 0 34 12t2 38q-5 13 -9.5 30.5t-9.5 34.5q-5 19 -11 39h-368zM336 498v228q0 11 2.5 23t10 21.5t20.5 15.5t34 6h188q31 0 51.5 -14.5t20.5 -52.5v-227h-327z" />
    

    
    <glyph glyph-name="quxiao" unicode="&#983043;" d="M600.7118 268.6949l251.1935 251.1935c12.2462 12.2462 18.3693 27.0211 18.3693 44.3246s-6.1231 32.0784-18.3693 44.3246l-0.0627 0.0627c-24.4715 24.4715-64.1567 24.4715-88.6491 0L512 357.4067 260.8065 608.6002c-12.2462 12.2462-27.0211 18.3693-44.3246 18.3693S184.4036 620.8464 172.1574 608.6002L172.0947 608.5375c-24.4924-24.4715-24.4924-64.1776 0-88.6491l251.1935-251.1935-251.1935-251.1935c-12.2462-12.2462-18.3693-27.0211-18.3693-44.3246 0-17.3244 6.1231-32.0993 18.3693-44.3455l0.0627-0.0627c24.4715-24.4715 64.1567-24.4715 88.6491 0l251.1935 251.1935 251.1935-251.1935c12.2462-12.2253 27.0211-18.3484 44.3246-18.3484s32.0993 6.1231 44.3246 18.3484l0.0627 0.0627c24.4924 24.4715 24.4924 64.1776 0 88.67L600.7118 268.6949z"  horiz-adv-x="1024" />

    
    <glyph glyph-name="quxiao1" unicode="&#58965;" d="M1024 718.88 930.88 812 512 393.12 93.12 812 0 718.88 418.88 300 0-118.944 93.12-212 512 206.88 930.88-212 1024-118.944 605.12 300Z"  horiz-adv-x="1024" />

    
    <glyph glyph-name="goumai" unicode="&#58958;" d="M497.502309 521.212194M960.744839 299.595794c0-247.63703-200.744024-448.381054-448.382077-448.381054-247.632937 0-448.382077 200.744024-448.382077 448.381054 0 247.63396 200.74914 448.3831 448.382077 448.3831C760.000815 747.978894 960.744839 547.230778 960.744839 299.595794L960.744839 299.595794zM479.895303 39.125481l64.941058 0L544.836361 144.693842l128.505769 0 0 52.119031L544.836361 196.812873l0 73.690326 128.505769 0L673.34213 321.945825 562.612213 321.945825l0.514723 0.883113 139.453099 237.239216-69.117171 0L554.369481 414.329908c-21.018709-39.347147-34.057677-65.875337-38.754652-78.840626l-0.140193-0.39295-2.140757 0-0.158612 0.353041c-13.871939 31.546483-53.526077 107.117646-117.859291 224.61878l-73.169463 0L460.76664 321.945825 346.671069 321.945825l0-51.442626 133.224234 0 0-73.690326-133.224234 0 0-52.119031 133.224234 0L479.895303 39.125481 479.895303 39.125481z"  horiz-adv-x="1024" />

    
    <glyph glyph-name="shangcheng" unicode="&#58993;" d="M789.929452-53.904309c-31.277354 0-56.721863-25.387203-56.721863-56.709583s25.442462-56.735166 56.721863-56.735166c31.292704 0 56.70856 25.413809 56.70856 56.735166S821.222155-53.904309 789.929452-53.904309M426.988326-53.904309c-31.252795 0-56.737212-25.387203-56.737212-56.709583s25.485441-56.735166 56.737212-56.735166c31.278377 0 56.665581 25.413809 56.665581 56.735166S458.267726-53.904309 426.988326-53.904309M294.629809 134.160951l-55.886845 347.461573C203.044928 686.18041 29.348933 688.431683 27.638989 688.431683l-0.165776-54.082756c5.293563-0.068562 130.23004-3.375887 157.798932-161.703869l55.611575-344.391654c2.847861-46.216601 34.739199-133.689838 135.27494-133.689838l531.385513 0 0 54.191226L376.157637 48.754792C302.955428 48.755816 295.535435 123.237157 294.629809 134.160951M920.618956 505.495234c-101.508905 0-539.820626 54.081733-539.820626 54.081733s-108.330264 22.038946-89.975221-94.79704c18.232247-116.821659 45.786813-281.986349 45.786813-281.986349s22.150486-89.013313 115.249861-89.013313l379.062292 0c84.654029 0 114.166179 102.186334 114.166179 102.186334l47.397496 222.748177C992.485751 418.715799 1022.169817 505.495234 920.618956 505.495234"  horiz-adv-x="1024" />

    
    <glyph glyph-name="shangcheng1" unicode="&#58915;" d="M891.847168 536.576113c0.01842 11.719926-3.734044 16.718777-15.511275 16.96744-43.716664 0.924045-81.932034 15.994276-116.237351 43.309388-7.190773 5.725398-20.269649 6.967692-30.129204 5.840008-22.128997-2.530636-43.939745-7.847735-65.782216-12.011568-22.23849 61.152778-62.132082 99.302657-123.116015 113.645316-1.074472-1.537006-2.148943-3.072989-3.223415-4.609994 15.611559-13.393032 30.522154-27.731598 46.998407-39.96113 25.298176-18.777669 43.966351-41.62605 53.771671-74.104765-16.384156-3.38919-31.081902-6.429433-46.959521-9.714246-1.003863 6.262634-1.779529 10.956539-2.5071 15.658631C575.437821 680.241141 486.334457 745.522959 401.404136 725.666726 332.056722 709.454486 292.986891 659.1508 273.590122 593.833165c-7.847735-26.426883-7.710612-55.224766-11.313673-83.791381-42.148959-8.719592-85.559655-17.700127-129.59866-26.811646 0-9.620102 0-16.922415 0-24.224728 0-147.165758 0.443092-294.334585-0.522909-441.49318-0.130983-19.942191 5.423523-26.900673 24.990161-30.739095 193.151092-37.888935 386.077056-76.92602 579.125817-115.344005 6.14086-1.221828 13.465686-0.794086 19.292392 1.38965 41.229007 15.446807 82.125439 31.782867 123.338073 47.278793 9.332553 3.508917 12.964266 8.138354 12.945847 18.62008C891.515616 138.002442 891.541199 337.289278 891.847168 536.576113zM515.351328 181.566634c0-16.566304-2.339278-31.56081-7.017834-44.982494-4.678556-13.421684-11.542894-24.848944-20.593014-34.282804-9.05012-9.43386-20.132526-16.7198-33.247218-21.85782-13.114692-5.139044-28.185946-7.707542-45.211714-7.707542-18.714224 0-34.589796 2.453888-47.628764 7.362688-13.037944 4.9088-23.659863 11.849886-31.866778 20.823258-8.206916 8.973372-14.189164 19.748786-17.946744 32.327266-3.758604 12.577456-5.637394 26.613124-5.637394 42.10598L306.201867 377.601402l40.955784 0 0-199.025892c0-11.811 1.112334-22.164812 3.335978-31.061436 2.224668-8.896624 5.867638-16.33606 10.92891-22.318308 5.062296-5.982248 11.619642-10.507308 19.673062-13.57518 8.05342-3.067872 17.908882-4.601808 29.566386-4.601808 21.782096 0 37.849026 6.28924 48.202838 18.866696 10.353812 12.57848 15.530718 30.29498 15.530718 53.150524L474.395544 377.601402l40.955784 0L515.351328 181.566634zM540.754904 565.674848c-56.214303-11.273764-112.451118-22.433942-171.19401-34.142611 10.426467 71.237461 43.325761 122.679064 110.142539 149.544945-21.696138 15.303544-29.258371 15.852036-49.189306 1.689479-48.612161-34.541701-76.032674-82.21856-83.95818-140.80591-1.570775-11.615549-3.641947-17.493419-16.353456-18.543332-12.609179-1.041726-24.992207-4.821819-39.400359-7.798617-5.006014 56.980759 9.953699 104.46626 46.602388 144.689357 34.856879 38.255279 77.713966 53.072753 127.917368 38.680974 51.160193-14.666024 83.644025-49.315172 97.054453-100.806917C569.310264 571.550673 568.484456 571.235494 540.754904 565.674848z"  horiz-adv-x="1024" />

    
    <glyph glyph-name="sc" unicode="&#58883;" d="M1090.639 664.99h-999.739l-90.9-263.641c0-81.25 66.127-147.141 147.692-147.141s147.692 65.851 147.692 147.141c0-81.25 66.127-147.141 147.692-147.141 81.566 0 147.692 65.851 147.692 147.141 0-81.25 66.127-147.141 147.692-147.141 81.566 0 147.692 65.851 147.692 147.141 0-81.25 66.127-147.141 147.692-147.141s147.692 65.851 147.692 147.141l-90.9 263.641zM190.858 711.109h799.823c30.129 0 54.548 19.889 54.548 44.426s-24.458 44.465-54.548 44.465h-799.823c-30.090 0-54.548-19.889-54.548-44.465s24.458-44.426 54.548-44.426v0zM886.154 247.079c-40.094-37.455-92.239-57.974-147.692-57.974-55.454 0-107.638 20.519-147.692 57.974-40.094-37.455-92.239-57.974-147.692-57.974-55.454 0-107.638 20.519-147.692 57.974-40.094-37.455-92.239-57.974-147.692-57.974-3.82 0-7.601 0.079-11.382 0.276v-324.49c0-54.075 48.955-88.891 90.9-88.891h727.079c54.745 0 90.9 40.33 90.9 88.891v324.49c-3.781-0.197-7.562-0.315-11.382-0.315-55.414 0-107.599 20.559-147.653 58.014v0zM886.154 247.079z"  horiz-adv-x="1182" />

    
    <glyph glyph-name="jiantou-copy" unicode="&#58923;" d="M672 384l-384-384c-12.8-12.8-12.8-31.999 0-44.799s31.999-12.8 44.799 0l403.2 403.2c6.4 6.4 12.8 19.199 12.8 25.6s0 19.199-6.4 25.599l-409.6 409.6c-12.8 12.8-31.999 12.8-44.799 0s-12.8-31.999 0-44.799l384-390.399z"  horiz-adv-x="1024" />

    
    <glyph glyph-name="arrow-right-copy" unicode="&#58880;" d="M259.982 352.317l-0.008-0.008 1.137-1.049 317.429-297.916 56.657 60.368-258.659 242.758 240.734 260.543-60.806 56.186-296.492-320.872z"  horiz-adv-x="1024" />

    
    <glyph glyph-name="sousuo" unicode="&#58911;" d="M512.034281 819.117982c-240.202711 0-435.165054-194.83136-435.165054-435.124122 0-240.268202 194.96132-435.100586 435.165054-435.100586 59.585073 0 116.371404 12.05557 168.096463 33.743522-13.106506 5.012154-24.790616 14.037714-32.602535 26.979468L544.87013 181.386396c-111.893416-33.626865-236.425687 10.772344-299.55447 115.499547-74.789357 123.859959-34.93465 285.041942 88.921215 359.814925 124.066667 74.738192 285.119713 34.814923 359.861998-89.102341 63.10627-104.58701 44.26311-235.499595-37.545104-318.843792l102.704127-171.745573c8.442276-13.96813 10.727319-29.801746 8.185426-44.703131 108.698654 79.121012 179.662893 206.981075 179.662893 351.687828C947.106214 624.286622 752.261551 819.117982 512.034281 819.117982M385.72862 571.270151c-76.770478-46.324048-101.538581-146.152684-55.153134-223.013213 46.385447-76.905554 146.222269-101.531418 223.180012-55.149041 76.842109 46.310745 101.538581 146.233526 55.153134 223.01219C562.546721 593.097272 462.687386 617.769184 385.72862 571.270151"  horiz-adv-x="1024" />

    
    <glyph glyph-name="shangcheng2" unicode="&#58957;" d="M812.434513 189.318042 343.42463 189.318042l24.291243 85.058235-0.151449 0.124843c3.677762 4.944616 4.496407 10.952446 3.162016 16.492626-0.056282 0.171915 0.019443 0.335644-0.036839 0.515746l-66.974367 341.520257-0.075725-0.020466c-2.038426 8.638751-9.465582 14.403035-17.884322 15.106046-0.455371 0.12382-0.799202 0.419556-1.258667 0.475837l0 0.103354-70.39221 12.903891-0.016373-0.180102c-10.971889 1.715061-21.217231-5.779633-22.968108-16.733103-1.75497-10.923794 5.747911-21.169135 16.720823-22.892383l60.278875-11.0558 61.278645-321.730539-35.507702-107.954711 0.075725-0.055259c-0.400113-0.552585-0.475837-1.199315-0.835018-1.790786-0.76441-1.276063-1.411139-2.530636-1.867534-3.981684-0.419556-1.295506-0.63138-2.550079-0.782829-3.845585-0.092098-0.763386-0.456395-1.446955-0.456395-2.210341 0-0.511653 0.248663-0.951675 0.284479-1.446955 0.115634-1.446955 0.438998-2.818185 0.859577-4.189416 0.339738-1.107217 0.627287-2.189875 1.143033-3.237741 0.606821-1.258667 1.462305-2.342348 2.361791-3.465938 0.719384-0.935302 1.427512-1.790786 2.302439-2.573615 0.475837-0.400113 0.723477-0.931209 1.199315-1.311879 0.759293-0.571005 1.675152-0.723477 2.494821-1.143033 0.935302-0.535189 1.846044-1.031493 2.877537-1.37123 1.635243-0.571005 3.273557-0.87902 5.009084-1.030469 0.531096-0.036839 1.011027-0.303922 1.578961-0.303922l0-0.096191 502.299057 0 0 0.192382c11.104919 0 20.110013 8.989745 20.110013 20.053732C832.544527 180.328297 823.539432 189.318042 812.434513 189.318042L812.434513 189.318042zM845.312318 533.385309c0.268106 1.226944 0.763386 2.369977 0.763386 3.653203 0 1.107217-0.459464 2.067079-0.627287 3.113921-0.060375 0.404206-0.156566 0.7552-0.24764 1.143033-0.475837 2.190899-1.25969 4.181229-2.38328 6.028297-0.227174 0.356111-0.455371 0.687662-0.703011 1.039679-1.182942 1.686409-2.534729 3.121084-4.189416 4.360308-0.515746 0.419556-1.086751 0.771573-1.658779 1.143033-1.52268 0.915859-3.105734 1.61887-4.876054 2.12336-0.511653 0.163729-0.87595 0.49528-1.408069 0.6191-0.63138 0.1361-1.198292-0.035816-1.810229 0.039909-0.763386 0.092098-1.427512 0.448208-2.210341 0.448208L374.515742 557.09736l0-0.088004c-11.104919 0-20.11513-8.997931-20.11513-20.074198 0-11.06501 9.010211-20.046568 20.11513-20.046568l0-0.104377 408.766824 0 14.226003 0.068562-67.254753-216.733183L448.640973 300.119591l0-0.083911c-11.103896 0-20.110013-9.002025-20.110013-20.067035 0-11.076266 9.006118-20.053732 20.110013-20.053732l0-0.10847 288.924365 0 0 0.192382c0.803295 0 1.467421 0.350994 2.214435 0.459464 0.132006-0.048095 0.224104-0.144286 0.360204-0.163729 10.835789-2.382257 21.577434 4.441149 23.979134 15.265682l0.096191-0.016373 79.897701 253.148557c0.268106 0.579191 0.419556 1.178849 0.63138 1.790786l0.759293 2.198062-0.191358 0.035816C845.372693 532.945287 845.276503 533.153018 845.312318 533.385309L845.312318 533.385309zM419.421488 110.671844c-20.094664 0-36.375465-16.249079-36.375465-36.283368s16.280802-36.263925 36.375465-36.263925c20.114107 0 36.378535 16.229636 36.378535 36.263925S439.535595 110.671844 419.421488 110.671844L419.421488 110.671844zM696.78454 110.671844c-20.074198 0-36.374442-16.249079-36.374442-36.283368s16.300244-36.263925 36.374442-36.263925c20.11513 0 36.400025 16.229636 36.400025 36.263925S716.89967 110.671844 696.78454 110.671844L696.78454 110.671844zM696.78454 110.671844M512 851.627397c-259.393795 0-469.674009-210.280214-469.674009-469.674009s210.280214-469.674009 469.674009-469.674009 469.674009 210.280214 469.674009 469.674009S771.393795 851.627397 512 851.627397zM512-48.559717c-237.766219 0-430.513104 192.746886-430.513104 430.513104S274.233781 812.466492 512 812.466492s430.513104-192.746886 430.513104-430.513104S749.765195-48.559717 512-48.559717z"  horiz-adv-x="1024" />

    
    <glyph glyph-name="jiantou-copy-copy-copy" unicode="&#58908;" d="M510.807 830.162c-247.485 0-448.185-200.635-448.185-448.187s200.702-448.187 448.185-448.187c247.552 0 448.187 200.632 448.187 448.187 0.001 247.552-200.634 448.187-448.187 448.187zM510.807-10.189c-216.601 0-392.164 175.563-392.164 392.164s175.529 392.232 392.164 392.232 392.198-175.631 392.198-392.232c-0.003-216.6-175.599-392.164-392.198-392.164zM637.839 621.054c-10.923 10.996-28.641 10.996-39.567 0l-214.462-214.432c-6.725-6.792-8.824-15.966-7.285-24.647-1.54-8.685 0.599-17.927 7.284-24.65l214.462-214.499c10.96-10.925 28.679-10.925 39.567 0 10.993 10.923 10.993 28.71 0 39.636l-199.443 199.514 199.443 199.443c10.994 10.993 10.994 28.71 0 39.636z"  horiz-adv-x="1024" />

    
    <glyph glyph-name="chevron-copy-copy-copy-copy-copy" unicode="&#59168;" d="M531.714 153.149l421.134 421.103c12.223 12.256 12.223 32.062 0 44.317-12.255 12.255-32.093 12.255-44.348 0l-400.575-400.544-393.962 393.93c-11.879 11.91-31.154 11.91-43.032 0-11.942-11.878-11.941-31.154 0-43.061l409.1-409.131c1.598-1.598 3.542-2.382 5.391-3.543 0.721-0.971 1.097-2.163 2.005-3.072 12.223-12.223 32.063-12.223 44.286 0z"  horiz-adv-x="1024" />

    
    <glyph glyph-name="store" unicode="&#58917;" d="M948.87 454.295c0-62.132-48.892-112.489-109.216-112.489-60.326 0-109.217 50.357-109.217 112.489v0 0 0c0-62.132-48.906-112.489-109.216-112.489-60.326 0-109.219 50.357-109.219 112.489v0 0 0 0c0-62.132-48.908-112.489-109.22-112.489-60.325 0-109.217 50.357-109.217 112.489v0 0 0 0c0-62.132-48.892-112.489-109.216-112.489s-109.217 50.357-109.217 112.489v0 0 0l67.207 201.539h739.325l67.21-201.539zM807.727 723.786h-591.453c-22.269 0-40.33 15.201-40.33 33.972 0 18.772 18.062 33.989 40.33 33.989h591.453c22.272 0 40.329-15.218 40.329-33.989 0-18.772-18.057-33.972-40.329-33.972zM243.15 316.039v-203.872h537.685v203.871c8.005-17.634 23.964-33.052 33.618-33.987 19.498-1.822 24.944 15.772 33.603 33.987v-271.837c0-37.103-26.748-67.947-67.221-67.947h-537.685c-31.015 0-67.206 26.608-67.206 67.947v271.839c4.662-17.603 9.571-33.987 33.603-33.987 19.838-0.001 31.274 22.512 33.604 33.987z"  horiz-adv-x="1024" />

    
    <glyph glyph-name="arrow-down" unicode="&#58881;" d="M167.312 289.312l312.5-312.5c24.406-24.406 63.969-24.406 88.376 0l312.5 312.5c24.406 24.406 24.406 63.969 0 88.376-24.406 24.406-63.969 24.406-88.376 0l-205.813-205.813v599.125c0 34.531-27.969 62.5-62.5 62.5s-62.5-27.969-62.5-62.5v-599.125l-205.813 205.813c-12.188 12.188-28.188 18.313-44.188 18.313s-32-6.095-44.188-18.313c-24.406-24.406-24.406-63.969 0-88.376z"  horiz-adv-x="1000" />

    
    <glyph glyph-name="quxiao2" unicode="&#59090;" d="M512 800C281.6 800 96 614.4 96 384s185.6-416 416-416 416 185.6 416 416S742.4 800 512 800z m0-800C299.2 0 128 171.2 128 384S299.2 768 512 768s384-171.2 384-384-171.2-384-384-384zM540.8 376l158.4 160c6.4 6.4 6.4 16 0 22.4-6.4 6.4-16 6.4-22.4 0l-158.4-160-169.6 171.2c-6.4 6.4-16 6.4-22.4 0-6.4-6.4-6.4-16 0-22.4L496 376 326.4 204.8c-6.4-6.4-6.4-16 0-22.4 6.4-6.4 16-6.4 22.4 0l169.6 171.2 158.4-160c6.4-6.4 16-6.4 22.4 0 6.4 6.4 6.4 16 0 22.4l-158.4 160z"  horiz-adv-x="1024" />

    
    <glyph glyph-name="sousuo1" unicode="&#58887;" d="M1049.6-5.888c12.054-11.654 19.538-27.97 19.538-46.034 0-35.346-28.654-64-64-64-18.064 0-34.38 7.484-46.017 19.52l-181.073 181.010c-8.919 9.319-14.989 21.432-16.768 34.898-27.169-33.591-59.908-55.724-95.37-73.164 182.75 143.574 195.837 136.385 205.408 125.925zM461.632 761.6c-176.731-0-320-143.269-320-320s143.269-320 320-320c176.731 0 320 143.269 320 320 0 176.731-143.269 320-320 320z"  horiz-adv-x="1088" />

    
    <glyph glyph-name="jiantou-copy1" unicode="&#59024;" d="M9.755 613.225h996.972l-498.445-498.445z"  horiz-adv-x="1024" />

    
    <glyph glyph-name="icon--mianxing-shuju_xiangqing" unicode="&#58967;" d="M886.039552 24.024064c0-13.195264-10.696704-23.891968-23.891968-23.891968H141.930496c-13.195264 0-23.891968 10.696704-23.891968 23.891968V744.241152c0 13.195264 10.696704 23.891968 23.891968 23.891968h720.217088c13.195264 0 23.891968-10.696704 23.891968-23.891968v-720.217088zM213.43232 436.827136c-30.908416 0-55.8592-24.950784-55.8592-55.8592 0-30.908416 24.950784-55.8592 55.8592-55.8592s55.8592 24.950784 55.8592 55.8592c0 30.908416-24.94976 55.8592-55.8592 55.8592z m0 223.4368c-30.908416 0-55.8592-24.950784-55.8592-55.8592s24.950784-55.8592 55.8592-55.8592 55.8592 24.950784 55.8592 55.8592-24.94976 55.8592-55.8592 55.8592z m0-453.204992c-27.556864 0-49.528832-22.34368-49.528832-49.528832 0-27.185152 22.34368-49.528832 49.528832-49.528832s49.528832 22.34368 49.528832 49.528832c0 27.185152-21.970944 49.528832-49.528832 49.528832z m111.719424-86.767616h521.353216v74.478592H325.151744v-74.478592z m0 223.4368h521.353216v74.478592H325.151744v-74.478592z m0 297.916416v-74.478592h521.353216v74.478592H325.151744z"  horiz-adv-x="1024" />

    
    <glyph glyph-name="shangcheng3" unicode="&#58900;" d="M945.778 561.778c-0 0-0 0-0 0-11.782 0-21.333-9.551-21.333-21.333 0-0 0-0 0-0l0-100.949c0-45.497-55.367-83.94-120.889-83.94s-120.889 38.443-120.889 83.94v100.949c0 11.782-9.551 21.333-21.333 21.333s-21.333-9.551-21.333-21.333v-100.949c0-45.497-55.367-83.94-120.889-83.94s-120.889 38.443-120.889 83.94v100.949c0 0 0 0 0 0 0 11.782-9.551 21.333-21.333 21.333-2.503 0-4.878-0.512-7.111-1.308-2.16 0.824-4.658 1.303-7.267 1.309 0.156-0.001 0.156-0.001 0.156-0.001-11.782 0-21.333-9.551-21.333-21.333 0-0 0-0 0-0v-100.949c0-45.497-55.367-83.94-120.889-83.94s-120.889 38.443-120.889 83.94v100.949c0 11.782-9.551 21.333-21.333 21.333s-21.333-9.551-21.333-21.333c0-0 0-0 0-0l-0-100.949c0-40.036 24.192-75.719 61.781-98.944-3.015-3.669-4.892 15.004-4.892 15.004v-376.889c0-0 0-0 0-0 0-11.782 9.551-21.333 21.333-21.333h739.556c0-0 0-0 0-0 11.782 0 21.333 9.551 21.333 21.333 0 0 0 0 0 0l-0 348.444c0 2.574-0.526 5.006-1.365 7.296 43.662 22.756 72.476 61.355 72.476 105.102v100.935c0 0 0 0 0 0 0 11.782-9.551 21.333-21.333 21.333zM853.333 0h-696.889v323.001c19.669-6.5 41.301-10.112 64-10.112 66.546 0 123.819 30.962 149.333 75.207 25.515-44.245 82.788-75.207 149.333-75.207 60.928 0 114.076 25.97 142.222 64.313 28.146-38.343 81.294-64.313 142.222-64.313 17.365 0 34.076 2.133 49.778 6.044v-318.933zM398.222 199.111h199.111v-227.556h-199.111zM604.444-42.667h-199.111c-11.782-0-21.333 9.551-21.333 21.333 0 0 0 0 0 0v227.556c0 0 0 0 0 0 0 11.782 9.551 21.333 21.333 21.333h199.111c0 0 0 0 0 0 11.782 0 21.333-9.551 21.333-21.333 0-0 0-0 0-0v-227.556c0-0 0-0 0-0 0-11.782-9.551-21.333-21.333-21.333-0 0-0 0-0 0zM426.667 0h156.444v184.889h-156.444v-184.889zM945.778 526.222h-867.556l113.778 256h640zM946.062 512h-867.84c-0.003-0-0.006-0-0.009-0-11.782 0-21.333 9.551-21.333 21.333 0 3.141 0.679 6.124 1.898 8.809l113.723 255.866c3.408 7.521 10.849 12.658 19.49 12.658 0.003 0 0.006-0 0.010-0l640 0c0.001 0 0.002 0 0.003 0 8.646 0 16.091-5.144 19.442-12.538l112.509-253.19c2.167-3.281 3.457-7.307 3.457-11.634 0-11.766-9.539-21.305-21.305-21.305-0.015 0-0.031 0-0.046 0zM111.047 554.667h801.892l-94.805 213.333h-612.267l-94.82-213.333z"  horiz-adv-x="1024" />

    
    <glyph glyph-name="jiantou" unicode="&#58626;" d="M490.982 519.763c-12.499 12.499-12.499 32.755 0 45.253v0c12.499 12.499 32.755 12.499 45.253 0l316.781-316.781c12.499-12.499 12.499-32.755 0-45.253v0c-12.499-12.499-32.755-12.499-45.253 0l-316.781 316.781zM216.237 202.982c-12.499-12.499-32.755-12.499-45.253 0v0c-12.499 12.499-12.499 32.755 0 45.253l316.781 316.781c12.499 12.499 32.755 12.499 45.253 0v0c12.499-12.499 12.499-32.755 0-45.253l-316.781-316.781z"  horiz-adv-x="1024" />

    
    <glyph glyph-name="shangcheng4" unicode="&#58924;" d="M795.170133 697.398613H233.198933c-82.957653 0-150.459733-67.50208-150.459733-150.459733v-514.880853c0-82.957653 67.50208-150.459733 150.459733-150.459734h561.9712c82.957653 0 150.459733 67.50208 150.459734 150.459734V546.93888c0 82.957653-67.50208 150.459733-150.459734 150.459733z m79.694507-665.340586a79.762773 79.762773 0 0 0-79.680853-79.680854H233.198933a79.762773 79.762773 0 0 0-79.680853 79.680854V546.93888a79.776427 79.776427 0 0 0 79.680853 79.694507h58.641067l-0.04096-0.45056v-46.544214a35.375787 35.375787 0 1 1 70.77888 0v46.544214l-0.04096 0.45056H665.873067l-0.04096-0.45056v-46.544214a35.375787 35.375787 0 1 1 70.77888 0v46.544214l-0.04096 0.45056h58.641066a79.762773 79.762773 0 0 0 79.680854-79.694507l-0.027307-514.880853zM311.691947 730.630827a35.525973 35.525973 0 0 1 47.363413 15.755946c1.652053 3.208533 41.53344 78.834347 155.60704 78.834347 113.855147 0 152.876373-75.380053 154.33728-78.288213a35.403093 35.403093 0 0 1 63.911253 30.405973C730.617173 782.185813 674.638507 896 514.676053 896 354.9184 896 297.915733 782.445227 295.553707 777.611947a35.2256 35.2256 0 0 1 16.13824-46.98112zM376.09472 475.09504a35.375787 35.375787 0 0 1-35.38944-35.38944v-34.515627a35.375787 35.375787 0 1 1 70.77888 0V439.7056a35.38944 35.38944 0 0 1-35.38944 35.38944zM652.274347 475.09504a35.375787 35.375787 0 0 1-35.38944-35.38944v-34.515627a35.375787 35.375787 0 1 1 70.77888 0V439.7056a35.38944 35.38944 0 0 1-35.38944 35.38944zM601.197227 315.282773a35.38944 35.38944 0 0 1-48.892587-10.717866c-0.136533-0.218453-15.1552-22.03648-38.488747-22.03648-22.65088 0-36.727467 20.507307-37.696853 21.940906a35.38944 35.38944 0 0 1-59.910827-37.669546c12.711253-20.43904 47.568213-55.05024 97.60768-55.05024 49.793707 0 85.07392 34.338133 98.085547 54.626986a35.416747 35.416747 0 0 1-10.704213 48.90624z"  horiz-adv-x="1024" />

    
    <glyph glyph-name="shangcheng5" unicode="&#58909;" d="M714.24 615.381333H302.677333V673.28C302.634667 779.264 387.242667 853.333333 508.458667 853.333333c121.173333 0 205.824-74.069333 205.824-180.096v-57.856z m-204.8-550.101333c0-0.426667-223.573333 133.333333-194.218667 285.525333 0 0 45.866667 155.861333 194.218667 28.16 0 0 148.693333 127.701333 192.725333-35.498666 0 0 36.693333-135.68-192.725333-278.186667z m411.434667 471.722667a79.018667 79.018667 0 0 1-78.805334 78.378666h-85.12V673.28C756.906667 804.394667 654.762667 896 508.458667 896 362.112 896 259.968 804.394667 259.968 673.28v-57.856H174.805333A79.018667 79.018667 0 0 1 96 537.002667L64-43.946667v-1.152C64-88.746667 99.413333-124.16 142.805333-124.16h731.306667a79.018667 79.018667 0 0 1 78.762667 79.061333l-32 582.101334z"  horiz-adv-x="1024" />

    
    <glyph glyph-name="shangcheng6" unicode="&#58927;" d="M932.608 600.448a19.904 19.904 0 0 1-15.104 7.04H336.576L316.8 709.824a19.2 19.2 0 0 1-11.264 14.08L116.672 807.68a19.456 19.456 0 0 1-25.664-9.792 19.392 19.392 0 0 1 9.92-25.6l179.648-79.744L386.048 147.2a19.456 19.456 0 0 1 19.136-15.68h437.824a19.392 19.392 0 0 1 0 38.848H421.184l-15.168 78.528h446.4c1.28 0 2.368 0.128 3.648 0.384l1.024 0.256c0.896 0.192 1.6 0.512 2.368 0.768a15.36 15.36 0 0 1 3.072 1.664l1.28 0.832c0.64 0.384 1.024 0.896 1.6 1.344a7.488 7.488 0 0 0 1.024 0.96 7.68 7.68 0 0 1 1.344 1.792l0.896 1.024c0.512 0.64 0.768 1.344 1.152 2.112 0.128 0.32 0.384 0.64 0.512 1.088a11.52 11.52 0 0 1 0.896 2.88l0.256 0.512 65.28 319.936a19.712 19.712 0 0 1-4.16 16z m-52.096-96.256h-90.24l7.488 64.512h96l-13.248-64.512z m-114.88-216.576l6.016 52.288h75.392l-10.56-52.288h-70.848z m-121.152 0v52.288h88l-6.016-52.288H644.48z m-114.752 0l-6.016 52.288h81.92v-52.288H529.728zM364.032 465.472h106.24l9.856-86.784H380.864l-16.832 86.784z m145.344 0h96.192v-86.784H519.296l-9.92 86.784z m135.104 38.72V568.768h114.112l-7.36-64.512H644.48z m102.4-38.72l-9.984-86.784H644.48V465.472h102.4z m-141.248 38.72H504.96l-7.36 64.576h108.032v-64.576z m249.344-125.504h-78.848l9.728 86.784h86.848l-17.728-86.784z m-396.48 190.08l7.36-64.512H356.544l-12.48 64.512h114.432zM388.288 339.904h96.256l6.016-52.288H398.464l-10.176 52.288zM452.288 27.072m-68.416 0a68.416 68.416 0 1 1 136.832 0 68.416 68.416 0 1 1-136.832 0ZM812.608 27.072m-68.416 0a68.416 68.416 0 1 1 136.832 0 68.416 68.416 0 1 1-136.832 0Z"  horiz-adv-x="1024" />

    
    <glyph glyph-name="shangcheng7" unicode="&#58889;" d="M512 637.155556L167.822222 358.4v-341.333333c0-8.533333 2.844444-19.911111 11.377778-25.6 8.533333-8.533333 17.066667-11.377778 28.444444-11.377778h230.4v281.6h153.6v-281.6h230.4c11.377778 0 19.911111 2.844444 28.444445 11.377778 8.533333 5.688889 11.377778 17.066667 11.377778 25.6V352.711111 355.555556L512 637.155556zM989.866667 420.977778L859.022222 526.222222V765.155556c0 5.688889-2.844444 8.533333-5.688889 14.222222-2.844444 2.844444-8.533333 5.688889-14.222222 5.688889h-113.777778c-5.688889 0-11.377778-2.844444-14.222222-5.688889-2.844444-2.844444-5.688889-8.533333-5.688889-14.222222v-113.777778l-147.911111 119.466666c-28.444444 19.911111-65.422222 19.911111-91.022222 0L36.977778 420.977778c-5.688889-2.844444-8.533333-5.688889-8.533334-11.377778s0-11.377778 5.688889-14.222222l36.977778-42.666667c2.844444-2.844444 8.533333-5.688889 11.377778-5.688889 5.688889 0 11.377778 0 14.222222 2.844445L512 688.355556l415.288889-338.488889c2.844444-2.844444 8.533333-2.844444 11.377778-2.844445h2.844444c5.688889 0 8.533333 2.844444 11.377778 5.688889l36.977778 42.666667c2.844444 2.844444 5.688889 8.533333 5.688889 14.222222s-2.844444 8.533333-5.688889 11.377778z"  horiz-adv-x="1024" />

    
    <glyph glyph-name="xiangqing" unicode="&#58933;" d="M512-46.15168c-230.22592 0-417.536 187.31008-417.536 417.536 0 230.23616 187.31008 417.54624 417.536 417.54624 230.23616 0 417.54624-187.31008 417.54624-417.54624C929.536 141.1584 742.22592-46.15168 512-46.15168z m0 783.88224c-202.00448 0-366.336-164.34176-366.336-366.34624 0-202.00448 164.34176-366.336 366.336-366.336 202.00448 0 366.34624 164.34176 366.34624 366.336C878.336 573.39904 714.00448 737.73056 512 737.73056zM493.39392 189.41952c-4.1472 0-8.13056 0.6144-11.99104 1.82272-16.86528 5.25312-24.54528 19.968-25.99936 30.976l-0.67584 5.13024 42.73152 155.98592c-7.2192-6.21568-16.37376-16.47616-22.87616-26.19392l-42.53696 28.48768c12.00128 17.92 43.80672 59.01312 79.18592 54.09792 12.94336-1.81248 30.34112-10.09664 39.70048-39.2192l2.33472-7.24992-37.6832-137.5744c8.91904 7.55712 20.76672 18.90304 36.10624 35.8912l38.00064-34.32448c-42.12736-46.63296-71.91552-67.82976-96.29696-67.82976zM512 519.96672m-39.87456 0a39.87456 39.87456 0 1 1 79.74912 0 39.87456 39.87456 0 1 1-79.74912 0Z"  horiz-adv-x="1024" />

    
    <glyph glyph-name="xiangqing1" unicode="&#58959;" d="M305.5 442.1c-16.4 0-29.6-13.3-29.6-29.6 0-16.4 13.3-29.6 29.6-29.6 16.4 0 29.6 13.3 29.6 29.6s-13.2 29.6-29.6 29.6zM305.5 619.9c-16.4 0-29.6-13.3-29.6-29.6s13.3-29.6 29.6-29.6c16.4 0 29.6 13.3 29.6 29.6s-13.2 29.6-29.6 29.6zM305.5 264.2c-16.4 0-29.6-13.3-29.6-29.6 0-16.4 13.3-29.6 29.6-29.6 16.4 0 29.6 13.3 29.6 29.6s-13.2 29.6-29.6 29.6zM720.5 442.1h-296.4c-16.4 0-29.6-13.3-29.6-29.6 0-16.4 13.3-29.6 29.6-29.6h296.4c16.4 0 29.6 13.3 29.6 29.6s-13.2 29.6-29.6 29.6zM720.5 619.9h-296.4c-16.4 0-29.6-13.3-29.6-29.6s13.3-29.6 29.6-29.6h296.4c16.4 0 29.6 13.3 29.6 29.6s-13.2 29.6-29.6 29.6zM809.4 797.8h-592.8c-65.5-0-118.6-53.1-118.6-118.6v-592.9c0-65.5 53.1-118.6 118.6-118.6h592.9c65.5 0 118.6 53.1 118.6 118.6v592.9c-0.1 65.5-53.2 118.6-118.7 118.6zM868.7 112.4c0-65.5-31.2-85.4-96.7-85.4h-518.5c-65.5 0-96.2 19.9-96.2 85.4v543.4c0 65.5 37.5 82.7 103 82.7h505.3c65.5 0 103.1-17.6 103.1-83.1v-543zM720.5 264.2h-296.4c-16.4 0-29.6-13.3-29.6-29.6 0-16.4 13.3-29.6 29.6-29.6h296.4c16.4 0 29.6 13.3 29.6 29.6s-13.2 29.6-29.6 29.6z"  horiz-adv-x="1024" />

    


  </font>
</defs>
</svg>
